<?xml version="1.0" standalone="no"?>
<!DOCTYPE svg PUBLIC "-//W3C//DTD SVG 20010904//EN"
 "http://www.w3.org/TR/2001/REC-SVG-20010904/DTD/svg10.dtd">
<svg version="1.0" xmlns="http://www.w3.org/2000/svg"
 width="778.000000pt" height="321.000000pt" viewBox="0 0 778.000000 321.000000"
 preserveAspectRatio="xMidYMid meet">

<g transform="translate(0.000000,321.000000) scale(0.100000,-0.100000)"
fill="#000000" stroke="none">
<path d="M1834 2554 c24 -24 24 -419 -1 -446 -16 -17 -11 -18 140 -18 l156 0
11 41 c6 22 14 48 16 57 3 9 -4 2 -16 -16 -32 -46 -68 -62 -145 -62 l-65 0 0
214 c0 182 2 217 16 230 14 15 9 16 -56 16 -65 0 -70 -1 -56 -16z"/>
<path d="M5985 2565 c6 -2 75 -15 155 -30 459 -82 896 -236 1155 -406 44 -29
125 -98 180 -153 137 -138 194 -247 214 -410 l7 -61 13 87 c68 457 -338 775
-1169 917 -154 26 -592 71 -555 56z"/>
<path d="M2492 2497 c-187 -68 -189 -336 -3 -402 96 -34 229 -8 288 56 53 58
68 160 34 235 -22 49 -78 97 -130 113 -49 14 -146 13 -189 -2z m168 -25 c55
-29 84 -92 84 -177 0 -59 -4 -78 -26 -117 -63 -106 -203 -103 -261 6 -32 61
-31 166 3 226 42 75 126 101 200 62z"/>
<path d="M5055 2500 c-67 -3 -114 -9 -107 -13 17 -12 17 -368 0 -385 -10 -10
17 -12 131 -10 l144 3 13 45 c13 44 12 71 -1 30 -12 -37 -63 -60 -132 -60
l-63 0 0 85 0 85 58 0 c32 0 63 -5 70 -12 9 -9 12 -4 12 26 0 36 0 37 -22 22
-13 -9 -43 -16 -70 -16 l-48 0 0 90 0 90 69 0 c50 0 74 -4 85 -16 15 -14 16
-13 16 15 0 24 -4 31 -17 29 -10 -1 -72 -4 -138 -8z"/>
<path d="M5511 2496 c-32 -18 -50 -53 -51 -100 0 -45 29 -77 128 -141 68 -44
86 -72 72 -109 -17 -46 -83 -60 -140 -31 -33 17 -50 43 -50 77 0 18 -2 20 -10
8 -5 -8 -10 -32 -10 -53 0 -34 3 -39 37 -54 52 -21 153 -14 190 13 37 28 55
81 42 128 -8 30 -25 46 -102 98 -80 55 -92 67 -95 95 -4 38 26 63 76 63 42 0
71 -15 82 -43 7 -18 9 -14 9 21 l1 42 -77 0 c-45 -1 -88 -6 -102 -14z"/>
<path d="M3060 2341 c5 -173 10 -188 72 -234 41 -30 152 -35 211 -9 71 32 80
57 87 245 l5 157 -35 0 c-26 0 -31 -3 -22 -12 20 -20 16 -281 -4 -324 -44 -92
-180 -84 -220 12 -18 44 -20 294 -2 312 9 9 0 12 -42 12 l-55 0 5 -159z"/>
<path d="M3698 2488 c17 -17 17 -369 0 -386 -9 -9 2 -12 52 -12 50 0 61 3 52
12 -8 8 -12 66 -12 195 l0 183 35 0 c19 0 45 -5 59 -11 68 -31 51 -158 -24
-172 -29 -6 -30 -7 -13 -26 10 -10 34 -47 53 -81 41 -74 77 -100 140 -100 43
0 44 1 22 15 -12 9 -42 44 -67 79 -25 35 -52 69 -60 76 -13 10 -10 15 18 34
78 53 76 150 -3 191 -38 19 -271 22 -252 3z"/>
<path d="M4288 2488 c17 -17 17 -369 0 -386 -9 -9 18 -12 124 -12 189 0 247
23 289 115 52 112 -7 254 -119 285 -55 15 -310 14 -294 -2z m287 -38 c45 -42
59 -79 59 -155 0 -82 -20 -126 -74 -162 -27 -19 -47 -23 -106 -23 l-74 0 0
186 0 186 84 -3 c74 -4 88 -7 111 -29z"/>
<path d="M244 1590 c-68 -537 -63 -519 -148 -539 -31 -7 -6 -9 109 -9 111 0
141 2 117 9 -56 16 -57 29 -28 310 30 295 35 331 45 325 4 -3 88 -154 187
-335 98 -182 181 -331 184 -331 3 0 11 21 18 46 17 64 324 638 333 622 3 -7
19 -144 35 -305 27 -282 28 -292 10 -312 -10 -11 -28 -22 -40 -24 -11 -2 67
-4 174 -5 107 0 182 3 165 7 -50 12 -76 31 -90 64 -7 18 -39 240 -71 494 -33
255 -62 463 -65 463 -4 0 -100 -173 -214 -385 -114 -212 -210 -385 -214 -385
-4 0 -103 173 -220 385 -117 212 -216 385 -220 385 -4 0 -34 -216 -67 -480z"/>
<path d="M6935 1893 c-44 -118 -359 -781 -382 -805 -14 -15 -42 -31 -62 -36
-28 -8 -4 -10 109 -11 131 0 142 1 113 14 -47 20 -48 42 -7 144 l38 91 169 -2
170 -3 34 -78 c18 -44 33 -89 33 -101 0 -25 -24 -51 -55 -59 -11 -2 68 -5 175
-5 107 0 183 3 169 7 -49 15 -67 31 -96 83 -26 45 -206 426 -341 721 -23 48
-43 87 -45 87 -2 0 -12 -21 -22 -47z m55 -384 l68 -164 -140 -3 c-78 -1 -143
-1 -145 1 -2 2 29 79 68 171 39 92 74 165 76 162 2 -2 35 -77 73 -167z"/>
<path d="M2085 1920 c-16 -4 -156 -9 -310 -10 -169 -1 -266 -5 -246 -10 71
-17 71 -12 71 -422 l0 -366 -25 -31 c-14 -16 -38 -32 -53 -34 -15 -2 119 -4
298 -3 l325 1 21 80 c38 147 38 145 2 85 -22 -36 -49 -64 -82 -85 -48 -29 -54
-30 -188 -33 l-138 -4 0 181 0 181 110 0 c124 0 157 -10 176 -55 12 -27 13
-21 13 75 0 98 -1 103 -15 78 -22 -42 -43 -48 -168 -48 l-116 0 0 180 0 180
149 0 c143 0 149 -1 174 -24 14 -13 28 -35 31 -48 3 -12 7 -32 9 -43 3 -11 5
26 6 83 0 56 -2 101 -6 101 -5 -1 -21 -5 -38 -9z"/>
<path d="M2388 1512 c3 -414 3 -415 -19 -438 -12 -13 -36 -25 -53 -27 -17 -2
46 -4 139 -5 151 0 166 1 138 13 -17 7 -36 22 -42 34 -14 24 -15 564 -2 559 5
-1 67 -55 137 -118 70 -63 178 -160 239 -215 113 -101 254 -226 290 -257 20
-16 20 -14 17 398 -2 315 1 414 9 408 8 -5 10 -1 7 14 -4 14 -2 19 7 16 7 -3
16 -1 20 5 7 12 -22 10 -42 -2 -7 -5 -13 -5 -13 0 0 4 -43 8 -95 9 l-95 1 29
-18 c40 -24 43 -55 39 -326 -2 -121 0 -219 5 -216 4 2 2 -7 -5 -21 -10 -24
-13 -25 -29 -10 -10 9 -23 13 -30 8 -7 -4 -10 -3 -6 3 4 6 -12 28 -36 48 -23
21 -64 59 -92 84 -27 26 -120 110 -205 186 -85 77 -177 161 -205 186 -27 26
-63 58 -80 72 l-30 25 3 -416z"/>
<path d="M4959 1920 c-170 -27 -295 -114 -361 -250 -26 -53 -32 -80 -36 -155
-8 -155 31 -267 123 -354 105 -99 218 -135 400 -129 135 6 200 25 293 86 222
146 242 519 36 691 -46 38 -141 84 -204 99 -67 16 -188 22 -251 12z m245 -74
c78 -46 143 -138 166 -238 14 -62 12 -215 -4 -273 -43 -163 -146 -255 -293
-263 -141 -8 -235 51 -300 186 -34 70 -37 86 -41 182 -3 61 1 130 7 162 30
145 137 259 258 277 72 10 156 -3 207 -33z"/>
<path d="M5690 1849 c1 -80 1 -83 15 -52 27 62 48 68 262 71 129 2 193 0 193
-7 0 -6 -110 -189 -245 -407 -135 -218 -245 -401 -245 -405 0 -5 162 -9 360
-9 198 0 360 1 360 3 0 1 14 49 30 107 36 126 37 140 5 79 -31 -59 -93 -113
-148 -128 -27 -8 -105 -11 -214 -9 l-171 3 193 320 c195 321 199 329 220 457
l6 36 -288 5 c-158 2 -298 7 -310 12 -23 7 -23 6 -23 -76z"/>
<path d="M4078 1883 c7 -3 16 -2 19 1 4 3 -2 6 -13 5 -11 0 -14 -3 -6 -6z"/>
<path d="M4110 1870 c0 -5 9 -10 19 -10 11 0 26 -6 33 -13 7 -8 19 -12 27 -9
8 3 11 0 7 -7 -5 -7 2 -11 20 -11 15 0 24 -3 21 -7 -11 -10 14 -34 27 -26 6 4
3 -5 -7 -20 -17 -26 -17 -27 3 -39 11 -7 20 -18 20 -24 0 -7 7 -14 15 -18 16
-6 16 -47 -1 -81 -13 -26 -18 -105 -7 -105 5 0 14 5 21 12 9 9 12 5 12 -21 0
-28 -2 -31 -14 -22 -12 10 -17 8 -26 -9 -8 -14 -8 -25 -2 -33 14 -16 9 -94 -6
-109 -7 -7 -12 -20 -12 -29 0 -9 -9 -19 -20 -22 -13 -3 -20 0 -20 10 0 8 4 12
8 9 4 -2 9 4 9 15 2 27 -13 15 -25 -20 -12 -35 1 -65 19 -41 8 12 9 10 4 -7
-4 -15 -2 -23 6 -23 7 0 9 -3 6 -6 -4 -4 -13 -2 -21 5 -11 9 -15 9 -19 -1 -3
-7 -6 -2 -7 12 -1 19 -3 21 -8 9 -13 -30 -67 -84 -104 -103 -20 -11 -35 -23
-33 -26 2 -3 -14 -7 -36 -7 -34 -2 -69 -20 -69 -37 0 -9 81 -6 130 4 58 13
121 41 115 50 -3 5 2 11 11 14 10 4 13 2 7 -7 -12 -19 48 23 87 62 20 20 46
52 58 72 56 94 69 266 27 383 -25 71 -74 143 -95 138 -6 -1 -9 2 -6 7 8 12
-39 46 -109 76 -63 28 -65 29 -65 15z m229 -177 c-8 -9 -8 -13 -1 -13 6 0 9
-7 5 -15 -7 -20 -11 -16 -16 16 -4 17 -1 26 9 26 10 0 11 -4 3 -14z m22 -64
c-5 -13 -10 -19 -10 -12 -1 15 10 45 15 40 3 -2 0 -15 -5 -28z m-80 -436 c13
-16 12 -17 -3 -4 -17 13 -22 21 -14 21 2 0 10 -8 17 -17z m-81 -11 c0 -5 -12
-14 -26 -20 -14 -7 -22 -17 -19 -22 4 -6 3 -9 -2 -8 -15 5 -55 -29 -43 -37 6
-4 18 1 25 11 8 11 15 14 15 8 0 -25 -26 -35 -53 -21 l-26 14 35 16 c19 9 37
24 41 33 3 9 15 20 27 24 27 11 26 11 26 2z m20 -32 c0 -5 -5 -10 -11 -10 -5
0 -7 5 -4 10 3 6 8 10 11 10 2 0 4 -4 4 -10z m-155 -76 c-32 -17 -38 -17 -30
-4 8 13 -1 13 -28 -1 -19 -9 -20 -8 -5 3 9 8 33 14 53 15 l37 1 -27 -14z"/>
<path d="M4086 1841 c-4 -5 -2 -12 3 -15 5 -4 12 -2 15 3 4 5 2 12 -3 15 -5 4
-12 2 -15 -3z"/>
<path d="M4134 1832 c11 -12 24 -22 30 -21 6 0 6 3 -2 6 -6 2 -9 10 -5 16 3 7
3 9 -2 5 -4 -4 -15 -2 -24 4 -10 8 -9 4 3 -10z"/>
<path d="M4138 1788 c5 -5 16 -8 23 -6 8 3 3 7 -10 11 -17 4 -21 3 -13 -5z"/>
<path d="M4216 1784 c7 -3 10 -15 7 -27 -4 -21 -4 -21 11 -3 18 22 13 36 -12
35 -9 0 -12 -3 -6 -5z"/>
<path d="M4229 1728 c-5 -9 -5 -48 -1 -43 6 6 11 45 5 45 -2 0 -4 -1 -4 -2z"/>
<path d="M4250 1660 c0 -5 5 -10 10 -10 6 0 10 5 10 10 0 6 -4 10 -10 10 -5 0
-10 -4 -10 -10z"/>
<path d="M4241 1564 c0 -11 3 -14 6 -6 3 7 2 16 -1 19 -3 4 -6 -2 -5 -13z"/>
<path d="M4250 1520 c0 -19 3 -21 12 -12 9 9 9 15 0 24 -9 9 -12 7 -12 -12z"/>
<path d="M4250 1456 c0 -31 6 -34 13 -6 3 11 1 23 -4 26 -5 3 -9 -6 -9 -20z"/>
<path d="M4240 1389 c0 -11 5 -17 10 -14 6 3 10 13 10 21 0 8 -4 14 -10 14 -5
0 -10 -9 -10 -21z"/>
<path d="M3552 1245 c0 -16 2 -22 5 -12 2 9 2 23 0 30 -3 6 -5 -1 -5 -18z"/>
<path d="M3553 1164 c0 -37 -6 -59 -21 -82 -18 -25 -19 -30 -6 -28 23 4 40 63
33 116 l-7 45 1 -51z"/>
<path d="M3570 1095 c-6 -8 -10 -21 -8 -31 2 -11 7 -6 15 15 13 34 11 38 -7
16z"/>
<path d="M3696 1097 c3 -10 9 -15 12 -12 3 3 0 11 -7 18 -10 9 -11 8 -5 -6z"/>
<path d="M3757 1073 c-15 -15 -5 -23 26 -22 30 2 30 2 4 6 -15 2 -25 9 -22 14
7 10 1 12 -8 2z"/>
<path d="M3895 1071 c3 -5 -9 -12 -27 -14 -21 -2 -14 -4 22 -5 34 -1 50 2 41
7 -11 7 -11 9 0 14 8 3 1 6 -14 6 -16 1 -26 -3 -22 -8z"/>
<path d="M3604 1058 c-3 -4 13 -8 35 -8 23 0 41 2 41 4 0 8 -71 12 -76 4z"/>
<path d="M60 759 c0 -84 4 -128 10 -124 5 3 10 29 10 56 0 49 1 50 27 47 21
-2 34 -15 57 -55 28 -50 46 -66 46 -43 0 6 -11 28 -25 50 -30 48 -31 56 -5 63
29 7 44 54 29 89 -12 30 -56 48 -116 48 l-33 0 0 -131z m120 91 c24 -24 25
-38 4 -68 -12 -17 -25 -22 -60 -22 l-44 0 0 55 0 55 40 0 c27 0 47 -7 60 -20z"/>
<path d="M470 760 l0 -130 60 0 c33 0 60 4 60 10 0 6 -22 10 -50 10 l-50 0 0
50 0 50 45 0 c25 0 45 5 45 10 0 6 -20 10 -45 10 l-45 0 0 50 0 50 50 0 c28 0
50 5 50 10 0 6 -27 10 -60 10 l-60 0 0 -130z"/>
<path d="M1277 879 c-4 -8 -6 -67 -5 -130 l3 -114 49 -3 c27 -2 54 2 59 7 8 8
-4 11 -41 11 l-51 0 -3 123 c-2 67 -7 115 -11 106z"/>
<path d="M1914 877 c-2 -7 -3 -65 -2 -128 l3 -114 63 -3 c38 -2 62 1 62 8 0 6
-23 10 -55 10 l-55 0 0 50 0 50 50 0 c28 0 50 5 50 10 0 6 -22 10 -50 10 l-50
0 0 50 0 50 55 0 c30 0 55 5 55 10 0 16 -120 13 -126 -3z"/>
<path d="M2322 880 c-12 -5 -27 -21 -34 -35 -19 -42 1 -68 71 -94 54 -20 61
-25 61 -50 0 -15 -5 -32 -12 -39 -19 -19 -70 -14 -95 10 -29 27 -40 18 -14
-13 15 -19 29 -24 64 -24 54 0 77 18 77 60 0 39 -21 59 -79 76 -54 16 -73 49
-46 79 24 26 69 26 95 -2 11 -12 23 -18 27 -14 12 12 -45 56 -70 55 -12 0 -32
-4 -45 -9z"/>
<path d="M2675 881 c-3 -6 12 -11 32 -13 l38 -3 5 -120 c6 -139 22 -141 20 -3
-1 51 -1 101 -1 111 1 13 10 17 37 17 21 0 33 4 29 10 -8 13 -152 13 -160 1z"/>
<path d="M3490 878 c0 -4 16 -8 35 -8 l35 0 0 -120 c0 -73 4 -120 10 -120 6 0
10 47 10 120 l0 120 35 0 c19 0 35 4 35 9 0 5 -36 9 -80 9 -44 -1 -80 -5 -80
-10z"/>
<path d="M3890 758 l0 -128 65 0 c37 0 65 4 65 10 0 6 -25 10 -55 10 l-55 0 0
50 0 50 50 0 c28 0 50 5 50 10 0 6 -22 10 -50 10 l-50 0 0 50 0 50 56 0 c36 0
53 4 49 10 -4 6 -33 10 -66 9 l-59 -2 0 -129z"/>
<path d="M4592 880 c-12 -5 -27 -21 -34 -35 -17 -37 2 -70 49 -85 21 -7 48
-19 61 -26 24 -16 29 -53 10 -72 -19 -19 -70 -14 -95 10 -13 12 -26 18 -30 14
-12 -12 45 -56 73 -56 28 0 65 17 76 34 14 20 8 63 -9 79 -10 8 -37 20 -61 27
-54 14 -75 49 -47 80 24 26 63 25 92 -2 13 -12 26 -18 30 -14 12 12 -45 56
-70 55 -12 0 -32 -4 -45 -9z"/>
<path d="M4960 758 l0 -128 65 0 c37 0 65 4 65 10 0 6 -25 10 -55 10 l-55 0 0
50 0 50 50 0 c28 0 50 5 50 10 0 6 -22 10 -50 10 l-50 0 0 50 0 50 55 0 c30 0
55 4 55 10 0 5 -28 9 -65 8 l-65 -2 0 -128z"/>
<path d="M5340 759 c0 -84 4 -128 10 -124 6 3 10 28 10 56 0 45 2 49 24 49 19
0 32 -12 58 -55 18 -30 36 -55 40 -55 13 0 9 13 -17 55 -30 49 -31 61 -5 68
29 7 44 54 29 89 -12 30 -56 48 -116 48 l-33 0 0 -131z m120 91 c24 -24 25
-38 4 -68 -12 -17 -25 -22 -60 -22 l-44 0 0 55 0 55 40 0 c27 0 47 -7 60 -20z"/>
<path d="M5879 775 c-23 -64 -45 -112 -49 -108 -4 4 -21 49 -39 98 -34 98 -47
123 -56 114 -9 -10 87 -250 99 -246 6 2 30 50 52 108 52 131 58 149 46 149 -6
0 -29 -52 -53 -115z"/>
<path d="M6180 761 c0 -81 4 -131 10 -131 6 0 10 48 10 124 0 73 -4 127 -10
131 -6 4 -10 -40 -10 -124z"/>
<path d="M6515 876 c-67 -29 -93 -134 -48 -194 44 -59 136 -66 188 -15 34 35
16 42 -20 8 -82 -75 -206 22 -161 128 28 69 111 91 157 42 13 -13 31 -25 39
-25 9 0 4 11 -16 31 -36 36 -93 46 -139 25z"/>
<path d="M6930 760 l0 -130 59 0 c33 0 63 5 66 10 4 6 -15 10 -49 10 l-56 0 0
50 0 50 50 0 c28 0 50 5 50 10 0 6 -22 10 -50 10 l-50 0 0 50 0 50 56 0 c34 0
53 4 49 10 -3 6 -33 10 -66 10 l-59 0 0 -130z"/>
<path d="M7326 869 c-45 -36 -30 -90 31 -109 21 -7 48 -19 61 -26 24 -16 29
-53 10 -72 -20 -20 -75 -14 -98 10 -11 12 -23 18 -27 14 -13 -13 46 -56 76
-56 40 0 81 35 81 69 0 33 -23 57 -65 66 -68 16 -94 55 -59 89 22 23 64 20 91
-6 13 -12 26 -18 30 -14 13 13 -46 56 -76 56 -16 0 -40 -9 -55 -21z"/>
<path d="M871 759 c-24 -66 -40 -123 -37 -126 3 -4 7 -4 9 -2 1 2 9 17 17 33
14 27 19 29 69 29 55 -1 81 -17 81 -50 0 -7 5 -13 10 -13 15 0 14 5 -32 132
-29 79 -48 118 -58 118 -10 0 -29 -40 -59 -121z m87 29 c12 -35 22 -66 22 -70
0 -5 -23 -8 -51 -8 -35 0 -49 4 -47 13 13 47 43 127 47 127 4 0 16 -28 29 -62z"/>
<path d="M3141 858 c-4 -13 -25 -67 -45 -121 -40 -108 -40 -107 -27 -107 5 0
14 13 19 29 9 25 16 29 54 32 68 6 83 1 97 -34 7 -18 15 -27 18 -20 7 19 -80
243 -95 243 -7 0 -16 -10 -21 -22z m48 -70 c12 -34 21 -66 21 -70 0 -4 -22 -8
-50 -8 -27 0 -50 2 -50 4 0 4 22 66 39 109 6 15 12 27 15 27 2 0 14 -28 25
-62z"/>
<path d="M60 265 l0 -235 3700 0 3700 0 0 235 0 235 -3700 0 -3700 0 0 -235z
m300 70 c0 -8 -9 -15 -20 -15 -18 0 -20 -7 -20 -70 0 -63 -2 -70 -20 -70 -18
0 -20 7 -20 70 0 68 -1 70 -25 70 -16 0 -25 6 -25 15 0 12 14 15 65 15 51 0
65 -3 65 -15z m120 -44 c0 -62 14 -86 44 -75 12 5 16 20 16 70 0 57 2 64 20
64 18 0 20 -7 20 -67 0 -79 -16 -103 -67 -103 -53 0 -73 28 -73 105 0 58 2 65
20 65 18 0 20 -7 20 -59z m306 34 c14 -21 15 -31 6 -50 -7 -14 -17 -25 -23
-25 -6 0 -1 -16 11 -35 l22 -35 -24 0 c-15 0 -30 11 -43 33 l-19 32 -4 -32
c-2 -25 -8 -33 -23 -33 -17 0 -19 8 -19 85 l0 85 50 0 c42 0 52 -4 66 -25z
m172 -27 l32 -53 0 53 c0 45 3 52 20 52 18 0 20 -7 20 -85 0 -77 -2 -85 -19
-85 -12 0 -31 19 -52 52 l-34 53 -3 -53 c-3 -44 -6 -52 -23 -52 -17 0 -19 7
-19 85 0 82 1 85 23 85 16 0 31 -14 55 -52z m202 -33 c0 -78 -2 -85 -20 -85
-18 0 -20 7 -20 85 0 78 2 85 20 85 18 0 20 -7 20 -85z m161 33 l34 -53 3 53
c3 44 6 52 23 52 17 0 19 -7 19 -86 0 -82 -1 -85 -22 -82 -12 2 -35 24 -55 52
l-33 48 0 -51 c0 -44 -3 -51 -20 -51 -18 0 -20 7 -20 85 0 77 2 85 19 85 12 0
31 -19 52 -52z m300 32 c20 -16 21 -21 10 -29 -10 -6 -22 -4 -37 6 -44 28 -84
-7 -70 -62 7 -28 38 -40 66 -25 29 16 25 30 -11 30 -50 0 -29 25 24 28 45 3
47 2 47 -23 0 -67 -96 -100 -145 -50 -77 76 34 194 116 125z m269 -10 c7 -16
16 -30 20 -30 4 0 13 14 20 30 8 18 20 30 31 30 24 0 24 -1 -6 -60 -14 -27
-25 -63 -25 -80 0 -23 -4 -30 -20 -30 -16 0 -20 7 -20 30 0 17 -11 53 -25 80
-30 59 -30 60 -6 60 11 0 23 -12 31 -30z m310 10 c27 -27 35 -65 20 -101 -35
-84 -164 -56 -164 36 0 73 94 115 144 65z m150 -44 c0 -48 4 -65 15 -70 34
-13 45 4 45 70 0 57 2 64 20 64 18 0 20 -7 20 -65 0 -78 -19 -105 -74 -105
-49 0 -66 28 -66 107 0 56 2 63 20 63 18 0 20 -7 20 -64z m301 43 c22 -22 18
-57 -8 -72 -12 -7 -11 -14 6 -43 l20 -34 -22 0 c-15 0 -30 11 -42 33 l-20 32
-3 -32 c-2 -25 -8 -33 -23 -33 -17 0 -19 8 -19 85 l0 85 45 0 c32 0 51 -6 66
-21z m344 -4 c17 -16 25 -35 25 -60 0 -55 -35 -85 -100 -85 l-50 0 0 85 0 85
50 0 c41 0 56 -5 75 -25z m217 8 c22 -20 23 -51 2 -74 -15 -17 -15 -20 0 -43
21 -32 20 -36 -3 -36 -11 0 -28 13 -38 30 -9 17 -21 30 -25 30 -4 0 -8 -13 -8
-30 0 -23 -4 -30 -20 -30 -18 0 -20 7 -20 85 l0 85 47 0 c29 0 53 -6 65 -17z
m208 2 c0 -10 -10 -15 -30 -15 -23 0 -30 -4 -30 -20 0 -15 7 -20 25 -20 16 0
25 -6 25 -15 0 -9 -9 -15 -25 -15 -18 0 -25 -5 -25 -20 0 -16 7 -20 30 -20 20
0 30 -5 30 -15 0 -11 -12 -15 -50 -15 l-50 0 0 85 0 85 50 0 c38 0 50 -4 50
-15z m196 -32 c9 -27 23 -63 31 -82 17 -42 17 -41 -7 -41 -11 0 -23 7 -26 15
-4 9 -19 15 -40 15 -24 0 -34 -5 -34 -15 0 -8 -9 -15 -20 -15 -25 0 -25 -1 8
92 22 65 31 78 49 78 16 0 25 -11 39 -47z m190 -10 l26 -58 25 58 c20 45 30
57 45 55 10 -2 19 -6 18 -10 0 -5 0 -42 0 -83 0 -60 -3 -75 -15 -75 -11 0 -15
12 -16 48 l-1 47 -20 -47 c-11 -27 -27 -48 -35 -48 -8 0 -23 19 -33 43 l-20
42 0 -42 c0 -36 -3 -43 -20 -43 -18 0 -20 7 -20 85 0 79 2 85 20 85 15 0 27
-15 46 -57z m312 45 c7 -7 12 -18 12 -25 0 -16 -32 -17 -47 -2 -12 12 -33 4
-33 -11 0 -5 16 -14 35 -20 47 -15 62 -43 40 -76 -11 -18 -24 -24 -50 -24 -32
0 -65 21 -65 41 0 13 34 11 47 -2 7 -7 19 -9 29 -5 21 8 11 20 -37 44 -38 19
-48 51 -24 76 19 19 76 21 93 4z m262 -73 c0 -78 -2 -85 -20 -85 -18 0 -20 7
-20 85 0 78 2 85 20 85 18 0 20 -7 20 -85z m161 33 l34 -53 3 53 c2 36 7 52
17 52 18 0 27 -49 23 -115 -2 -41 -7 -50 -23 -53 -14 -2 -28 11 -50 45 l-30
48 -3 -47 c-3 -40 -6 -48 -23 -48 -17 0 -19 7 -19 85 0 77 2 85 19 85 12 0 31
-19 52 -52z m279 37 c0 -8 -9 -15 -20 -15 -18 0 -20 -7 -20 -70 0 -63 -2 -70
-20 -70 -18 0 -20 7 -20 70 0 63 -2 70 -20 70 -11 0 -20 7 -20 15 0 12 13 15
60 15 47 0 60 -3 60 -15z m225 -10 c54 -53 16 -145 -59 -145 -78 0 -119 89
-66 145 32 34 91 35 125 0z m345 -47 c14 -40 26 -79 28 -85 5 -18 -35 -16 -42
2 -3 9 -18 15 -35 15 -16 0 -31 -6 -35 -15 -3 -8 -15 -15 -27 -15 -16 0 -19 4
-14 18 4 9 16 42 26 72 11 30 21 61 24 68 2 6 15 12 28 12 20 0 26 -10 47 -72z
m185 20 l35 -53 0 53 c0 45 3 52 20 52 18 0 20 -7 20 -85 0 -78 -2 -85 -20
-85 -14 0 -31 17 -53 53 l-32 52 -3 -52 c-3 -45 -6 -53 -23 -53 -17 0 -19 7
-19 85 0 78 2 85 20 85 12 0 32 -19 55 -52z m400 -13 c38 -104 39 -105 17
-105 -11 0 -22 7 -26 15 -3 9 -18 15 -36 15 -18 0 -33 -6 -36 -15 -5 -12 -44
-23 -44 -12 0 8 49 148 55 158 4 5 16 9 27 7 14 -2 27 -20 43 -63z m240 40
c17 -16 25 -35 25 -60 0 -55 -35 -85 -100 -85 l-50 0 0 85 0 85 50 0 c41 0 56
-5 75 -25z m230 0 c17 -16 25 -35 25 -60 0 -55 -35 -85 -100 -85 l-50 0 0 85
0 85 50 0 c41 0 56 -5 75 -25z m219 9 c20 -20 20 -53 0 -75 -15 -16 -15 -20 0
-41 21 -30 20 -38 -4 -38 -12 0 -26 12 -35 30 -20 39 -35 38 -35 -1 0 -24 -4
-30 -17 -27 -15 3 -19 16 -21 72 -2 38 -1 75 2 83 8 19 90 17 110 -3z m206 1
c0 -10 -10 -15 -30 -15 -23 0 -30 -4 -30 -20 0 -15 7 -20 25 -20 16 0 25 -6
25 -15 0 -9 -9 -15 -25 -15 -18 0 -25 -5 -25 -20 0 -16 7 -20 30 -20 20 0 30
-5 30 -15 0 -11 -12 -15 -50 -15 l-50 0 0 85 0 85 50 0 c38 0 50 -4 50 -15z
m192 -2 c10 -9 18 -20 18 -25 0 -12 -34 -10 -47 3 -7 7 -19 9 -28 5 -14 -5
-15 -9 -5 -21 7 -8 19 -15 28 -15 20 0 52 -29 52 -48 0 -26 -32 -52 -63 -52
-29 0 -67 24 -67 42 0 12 34 10 47 -3 13 -13 43 -5 43 10 0 5 -16 15 -36 21
-47 16 -64 52 -39 80 22 24 72 26 97 3z m206 5 c7 -7 12 -18 12 -25 0 -16 -32
-17 -47 -2 -12 12 -33 4 -33 -11 0 -5 16 -14 35 -20 47 -15 62 -43 40 -76 -11
-18 -24 -24 -50 -24 -32 0 -65 21 -65 41 0 13 34 11 47 -2 7 -7 19 -9 29 -5
21 8 11 20 -37 44 -38 19 -48 51 -24 76 19 19 76 21 93 4z"/>
<path d="M710 295 c0 -26 14 -31 39 -16 19 12 6 41 -19 41 -15 0 -20 -7 -20
-25z"/>
<path d="M2104 295 c-20 -30 -11 -62 22 -77 48 -22 86 49 46 85 -26 24 -49 21
-68 -8z"/>
<path d="M2580 295 c0 -26 18 -33 37 -14 16 16 5 39 -18 39 -14 0 -19 -7 -19
-25z"/>
<path d="M2910 265 c0 -59 9 -67 51 -45 39 22 15 100 -32 100 -16 0 -19 -7
-19 -55z"/>
<path d="M3140 301 c0 -24 13 -33 35 -25 23 9 14 38 -13 42 -16 3 -22 -2 -22
-17z"/>
<path d="M3566 274 c-10 -26 -7 -34 13 -34 14 0 18 5 14 20 -7 27 -20 34 -27
14z"/>
<path d="M4956 307 c-36 -26 -14 -97 30 -97 20 0 44 30 44 55 0 25 -24 55 -44
55 -7 0 -20 -6 -30 -13z"/>
<path d="M5332 270 c-7 -19 -6 -26 5 -28 21 -5 25 2 14 29 l-9 24 -10 -25z"/>
<path d="M5920 283 c0 -6 -3 -18 -6 -27 -4 -12 0 -16 15 -16 12 0 21 4 21 8 0
13 -29 48 -30 35z"/>
<path d="M6130 265 c0 -48 3 -55 19 -55 11 0 27 7 35 16 33 32 10 94 -35 94
-16 0 -19 -7 -19 -55z"/>
<path d="M6360 265 c0 -43 3 -55 16 -55 34 0 54 20 54 55 0 35 -20 55 -54 55
-13 0 -16 -12 -16 -55z"/>
<path d="M6592 298 c2 -15 10 -23 23 -23 30 0 27 39 -3 43 -20 3 -23 0 -20
-20z"/>
</g>
</svg>
